<?xml version="1.0" standalone="no"?>
<!DOCTYPE svg PUBLIC "-//W3C//DTD SVG 20010904//EN"
 "http://www.w3.org/TR/2001/REC-SVG-20010904/DTD/svg10.dtd">
<svg version="1.0" xmlns="http://www.w3.org/2000/svg"
 width="848.000000pt" height="1280.000000pt" viewBox="0 0 848.000000 1280.000000"
 preserveAspectRatio="xMidYMid meet">
<metadata>
Created by potrace 1.15, written by Peter Selinger 2001-2017
</metadata>
<g transform="translate(0.000000,1280.000000) scale(0.100000,-0.100000)"
fill="#000000" stroke="none">
<path d="M4055 12746 c-45 -20 -62 -45 -73 -105 -11 -60 -8 -77 15 -85 37 -15
59 45 26 70 -17 12 -17 15 -3 41 14 24 22 28 68 31 47 3 56 0 82 -27 25 -25
30 -37 30 -79 0 -69 -30 -109 -109 -149 -48 -24 -83 -33 -140 -37 -126 -10
-375 -46 -462 -67 -45 -11 -84 -18 -86 -15 -2 2 15 11 38 20 23 10 67 34 98
54 30 20 64 42 76 47 26 14 31 41 9 49 -13 5 -25 -2 -42 -23 -52 -68 -244
-149 -372 -157 l-75 -5 49 46 c37 34 46 49 36 55 -9 5 -29 -9 -64 -46 l-51
-53 -135 13 c-74 7 -128 14 -120 15 8 0 29 13 45 27 32 27 30 27 -60 -8 -90
-36 -194 -17 -435 78 -91 36 -100 38 -215 38 -146 1 -188 -9 -368 -86 -143
-61 -287 -118 -298 -118 -4 0 8 15 26 33 19 19 37 47 41 62 9 37 -21 95 -59
113 -25 12 -35 12 -75 -4 -26 -10 -55 -18 -66 -18 -23 -1 -41 -28 -33 -50 11
-27 54 -20 69 12 10 21 21 28 49 30 30 3 37 -1 47 -23 32 -69 -12 -131 -114
-161 -118 -35 -261 -21 -558 52 -82 20 -165 34 -201 34 -126 0 -216 -49 -231
-125 -14 -75 27 -120 135 -152 50 -14 53 -17 32 -25 -79 -29 -64 -130 30 -198
48 -35 173 -77 257 -86 41 -5 63 -14 79 -31 12 -12 30 -23 41 -23 36 0 92 -79
92 -132 0 -59 -67 -130 -136 -144 -30 -6 -35 -2 -88 70 -99 131 -245 253 -376
315 -33 16 -77 44 -98 63 -70 63 -133 100 -220 128 -87 29 -105 30 -96 6 3 -8
20 -13 43 -12 45 1 168 -57 221 -104 l35 -31 -33 6 c-17 3 -46 8 -63 11 -22 4
-29 3 -25 -5 4 -6 18 -11 30 -11 13 0 47 -8 75 -17 62 -20 116 -75 181 -185
24 -40 52 -84 62 -97 12 -16 15 -28 9 -34 -6 -6 -31 7 -70 35 -83 63 -146 91
-213 96 -73 5 -98 -1 -131 -34 -34 -34 -36 -78 -4 -98 35 -22 97 -30 97 -12 0
10 -11 14 -35 13 -43 -1 -60 14 -51 47 16 65 118 77 222 26 75 -37 163 -114
197 -173 56 -96 60 -122 61 -402 1 -244 2 -264 24 -320 12 -33 31 -72 42 -87
26 -35 26 -35 -10 -30 -80 12 -143 -30 -186 -123 -43 -91 -22 -183 53 -244 34
-28 42 -41 56 -104 38 -166 48 -278 84 -1017 25 -499 28 -623 27 -1230 -1
-371 -6 -787 -12 -924 -7 -174 -6 -453 2 -925 18 -1120 14 -1704 -17 -2351
-37 -746 -45 -848 -84 -1017 -14 -63 -22 -76 -56 -104 -75 -61 -96 -153 -53
-244 43 -93 106 -135 186 -123 36 5 36 5 10 -30 -11 -15 -30 -54 -42 -87 -22
-56 -23 -76 -24 -320 -1 -279 -5 -307 -60 -401 -33 -58 -123 -138 -199 -175
-105 -51 -204 -40 -221 27 -9 33 8 48 51 47 24 -1 35 3 35 13 0 18 -62 10 -97
-12 -32 -20 -30 -64 4 -98 33 -33 59 -40 137 -34 70 6 114 26 205 93 65 48 99
50 63 4 -10 -13 -37 -56 -60 -95 -79 -136 -163 -204 -254 -204 -15 0 -30 -5
-34 -11 -7 -11 25 -9 96 8 22 6 23 4 12 -10 -43 -52 -212 -132 -256 -121 -16
4 -25 0 -29 -10 -8 -21 7 -28 35 -17 13 5 48 17 78 26 59 18 138 65 198 119
20 18 66 48 102 66 143 72 276 184 376 316 30 41 62 74 70 74 56 0 139 -71
150 -127 12 -64 -37 -142 -98 -157 -15 -3 -29 -14 -33 -25 -4 -14 -19 -19 -68
-24 -77 -7 -188 -41 -245 -74 -55 -32 -102 -95 -102 -140 0 -32 28 -73 50 -73
29 0 3 -17 -49 -32 -77 -23 -121 -65 -121 -116 0 -87 78 -142 209 -150 64 -3
104 2 246 36 230 55 285 64 391 64 114 1 190 -21 238 -66 38 -35 45 -66 25
-110 -20 -44 -81 -38 -99 9 -11 30 -46 32 -63 3 -14 -21 7 -48 36 -48 12 0 40
-7 63 -16 36 -14 46 -14 71 -2 38 18 68 76 59 113 -4 15 -22 43 -41 62 -18 18
-29 33 -25 33 4 0 79 -30 166 -66 88 -36 191 -78 229 -94 149 -60 328 -64 475
-10 215 80 251 90 321 96 60 5 83 3 124 -14 90 -35 92 -35 60 -8 -16 14 -37
27 -45 27 -8 1 46 7 120 15 l135 12 53 -55 c38 -40 57 -52 64 -45 8 8 -3 24
-38 56 l-49 45 46 1 c115 1 342 -89 398 -158 20 -24 35 -33 46 -28 21 8 16 36
-10 50 -11 6 -35 21 -53 34 -18 13 -70 41 -115 63 -45 22 -73 38 -62 35 11 -3
46 -12 77 -20 94 -24 294 -55 433 -66 114 -10 138 -15 195 -43 80 -40 110 -80
110 -147 0 -58 -26 -95 -75 -109 -47 -13 -87 0 -105 33 -14 25 -13 28 3 40 33
25 15 79 -23 69 -26 -7 -29 -21 -18 -86 17 -100 96 -140 185 -96 66 34 86 73
80 166 -9 164 -108 224 -437 268 -272 36 -385 63 -666 159 -316 108 -504 198
-749 361 -378 251 -580 456 -860 875 -139 208 -154 242 -36 82 52 -70 81 -98
81 -77 0 15 -40 82 -129 215 -190 287 -292 527 -365 855 -63 290 -84 441 -121
880 -46 565 -46 564 -46 2560 0 1996 0 1995 46 2560 37 439 58 591 122 880 78
352 179 585 389 890 88 129 124 205 85 180 -6 -3 -43 -51 -82 -106 -74 -103
-98 -130 -53 -56 239 383 445 636 659 813 364 299 670 464 1140 617 207 67
344 98 582 132 100 14 211 34 247 45 128 40 196 121 196 234 0 80 -23 124 -80
154 -50 25 -72 27 -115 8z m-1563 -379 c75 -26 149 -47 165 -47 15 0 35 -5 43
-10 12 -8 12 -10 -5 -10 -31 0 -168 -72 -222 -117 -26 -22 -64 -45 -84 -52
-79 -25 -185 -114 -279 -232 l-36 -46 4 51 c3 45 0 56 -28 94 -106 147 -369
124 -662 -56 -112 -69 -225 -122 -291 -136 -200 -45 -447 13 -519 122 -23 35
-23 57 2 82 27 27 56 25 86 -7 17 -19 28 -23 35 -16 8 8 0 18 -27 36 l-37 26
89 -6 c60 -3 119 0 181 11 144 25 606 172 928 296 154 59 215 70 380 66 137
-3 143 -4 277 -49z m-1632 -87 c177 -44 287 -61 398 -63 l97 -1 -135 -44
c-304 -97 -454 -116 -620 -77 -98 23 -135 57 -127 116 15 112 128 132 387 69z
m2179 10 l34 0 -24 -26 c-13 -14 -57 -42 -98 -62 l-75 -37 -190 -3 -191 -3 25
21 c31 25 123 73 170 89 63 20 153 30 235 25 44 -2 95 -4 114 -4z m111 -49
c-80 -27 -154 -52 -165 -56 l-20 -7 20 13 c11 6 43 29 70 50 45 34 58 38 120
42 39 1 81 4 95 5 14 1 -40 -21 -120 -47z m-300 -108 c-245 -112 -406 -203
-578 -327 -159 -114 -163 -116 -131 -80 15 16 58 75 95 131 38 56 102 140 143
187 89 102 86 101 285 94 78 -3 155 -2 171 2 48 12 52 10 15 -7z m-472 -40
c-65 -76 -125 -155 -176 -230 -72 -105 -107 -140 -187 -188 -65 -39 -171 -76
-214 -74 -22 1 -20 3 14 14 61 19 138 60 171 92 17 15 62 71 101 123 85 112
190 219 253 254 53 31 58 31 38 9z m-468 -59 c75 -22 120 -68 120 -122 0 -80
-80 -133 -148 -98 -17 9 -32 25 -34 37 -5 34 -34 47 -55 26 -21 -20 -8 -50 23
-56 10 -2 32 -12 47 -23 43 -31 99 -35 142 -10 l35 21 -22 -30 c-44 -60 -146
-120 -243 -143 l-30 -8 22 24 c33 36 38 70 15 121 -22 49 -69 86 -136 107 -49
16 -217 8 -293 -14 -29 -8 -53 -13 -53 -11 0 6 213 123 265 146 114 51 244 63
345 33z m-240 -186 c114 -49 142 -146 59 -207 -26 -19 -43 -22 -129 -22 -142
-1 -244 31 -303 94 -21 22 -31 27 -39 19 -7 -7 -10 -13 -7 -14 2 -2 25 -18 51
-36 59 -41 145 -81 178 -83 56 -4 -93 -17 -197 -18 -134 -1 -159 6 -168 50 -4
18 -26 50 -51 75 -24 23 -44 44 -44 47 0 2 44 14 98 27 53 12 135 35 182 51
149 49 281 55 370 17z m-1032 -156 c73 -55 151 -136 214 -221 l32 -44 -29 7
c-149 35 -210 82 -304 235 -33 54 -67 103 -75 111 -9 7 -16 16 -16 21 0 13 95
-45 178 -109z m1377 -78 c-16 -14 -85 -80 -152 -146 l-121 -120 -41 23 c-25
13 -41 30 -41 41 0 10 -9 27 -21 39 -14 14 -19 30 -17 52 l3 32 82 7 c97 8
216 39 281 73 60 31 64 30 27 -1z m-425 -112 c0 -26 -6 -41 -19 -49 -11 -7
-21 -22 -23 -35 -3 -25 -69 -69 -75 -51 -11 32 -69 97 -110 123 -42 27 -44 29
-22 35 13 3 65 6 114 8 50 2 100 4 113 5 19 2 22 -3 22 -36z m-382 -12 c98
-24 126 -37 169 -82 57 -59 75 -117 77 -242 1 -123 -12 -175 -66 -254 -35 -51
-122 -112 -160 -112 -28 0 -55 -31 -43 -50 9 -15 52 -12 58 5 4 8 25 26 49 41
95 59 161 145 192 254 18 61 23 173 12 236 -7 40 -6 43 26 61 24 15 47 19 85
17 43 -2 64 -10 111 -40 2 -1 -34 -53 -81 -116 -92 -123 -201 -286 -320 -474
-103 -162 -312 -433 -324 -420 -2 2 5 19 16 37 10 19 31 72 45 119 15 47 30
94 35 105 113 247 131 303 131 400 0 125 -47 241 -133 333 -29 30 -70 63 -92
75 l-40 20 43 15 c25 8 60 31 80 53 21 21 39 39 42 39 3 0 42 -9 88 -20z
m-485 -34 c26 -14 74 -30 105 -36 31 -7 63 -17 70 -23 23 -18 98 -177 126
-265 35 -113 56 -237 56 -339 l0 -85 -28 30 c-16 17 -41 34 -55 37 -14 4 -28
13 -31 21 -7 18 -40 18 -56 -1 -21 -25 6 -48 47 -40 45 8 83 -28 83 -81 0 -51
-53 -104 -105 -104 -50 0 -97 24 -141 72 -83 93 -106 199 -92 434 10 150 -1
244 -38 323 -18 41 -21 57 -13 67 15 18 16 18 72 -10z m348 -157 c27 -27 65
-83 85 -124 33 -67 38 -85 42 -173 5 -106 -6 -150 -67 -282 l-30 -65 0 125 c0
192 -39 355 -122 522 -22 43 -39 80 -39 83 0 15 90 -43 131 -86z m-32 -796
c-40 -143 -107 -243 -177 -263 -83 -23 -182 -3 -235 47 -97 94 -9 291 119 267
74 -14 113 -91 59 -116 -32 -15 -40 -43 -21 -73 18 -27 45 -32 78 -14 18 10
19 17 13 72 -4 34 -14 74 -21 90 -16 31 -16 31 23 16 45 -17 108 -2 145 34 18
18 34 29 36 25 2 -4 -6 -42 -19 -85z m216 -35 c-54 -87 -138 -273 -178 -396
-22 -70 -42 -128 -43 -130 -6 -11 -86 43 -94 62 -5 13 -17 30 -28 37 -14 10
-20 30 -24 70 l-4 56 35 13 c80 29 214 144 303 261 29 38 54 69 56 69 2 0 -9
-19 -23 -42z m-525 -299 c19 -5 53 -9 76 -9 l41 0 6 -52 c6 -44 3 -56 -13 -73
-11 -12 -20 -32 -20 -46 0 -16 -13 -33 -39 -52 l-40 -27 -11 57 c-15 74 -33
137 -54 187 -15 36 -15 38 2 31 9 -4 33 -11 52 -16z m288 -268 c2 -6 -6 -53
-17 -103 -57 -251 -92 -558 -145 -1248 -7 -96 -14 -153 -15 -126 -8 328 -60
1171 -83 1350 l-11 89 44 38 c37 32 49 37 76 33 17 -3 39 -2 49 4 19 10 96
-18 102 -37z m-132 -6016 c38 -464 67 -685 115 -893 10 -45 19 -90 19 -98 0
-22 -80 -54 -104 -42 -10 6 -32 7 -48 4 -23 -4 -39 1 -73 27 -49 36 -50 41
-35 147 19 140 71 988 81 1337 1 27 6 -1 10 -62 5 -60 20 -249 35 -420z m-66
-1087 c0 -15 9 -36 21 -46 17 -17 19 -27 13 -71 l-7 -51 -42 0 c-23 0 -64 -7
-91 -15 -27 -8 -50 -15 -51 -15 -1 0 5 17 14 38 20 48 38 112 53 185 l11 57
40 -27 c28 -21 39 -35 39 -55z m258 -81 c41 -126 119 -300 178 -397 34 -57 22
-45 -55 52 -75 96 -196 200 -265 228 l-52 22 4 57 c4 40 10 60 24 70 11 7 23
24 28 37 7 19 69 62 90 63 3 1 24 -59 48 -132z m-216 -167 c69 -20 137 -120
177 -261 26 -94 26 -109 1 -76 -11 14 -40 33 -65 42 -41 16 -60 16 -118 -1
-17 -5 -17 -4 -4 23 8 15 18 56 22 90 6 55 5 62 -13 72 -33 18 -60 13 -78 -14
-19 -30 -11 -58 21 -73 50 -23 22 -93 -44 -113 -78 -23 -149 28 -170 122 -19
84 9 135 94 175 54 26 117 30 177 14z m189 -135 c88 -97 174 -215 307 -424
131 -204 204 -311 305 -444 32 -43 57 -79 55 -81 -70 -47 -142 -56 -196 -23
-32 18 -33 21 -26 61 11 63 6 175 -12 236 -30 104 -93 190 -182 247 -29 19
-56 41 -59 49 -7 18 -50 18 -60 -1 -6 -10 -18 8 -42 63 -56 127 -59 133 -91
232 -17 52 -40 108 -52 124 -33 45 -7 26 53 -39z m-45 -229 c27 -27 34 -42 34
-74 0 -53 -37 -85 -85 -76 -39 7 -65 -17 -45 -41 15 -18 46 -20 57 -2 4 7 23
19 41 26 18 8 42 25 52 39 l20 25 0 -85 c0 -103 -21 -227 -56 -340 -28 -88
-103 -247 -126 -265 -7 -6 -38 -16 -68 -22 -30 -6 -79 -23 -108 -37 -49 -24
-55 -25 -70 -11 -11 11 -12 20 -5 29 22 28 51 126 57 193 3 39 2 122 -2 185
-14 221 15 345 100 427 76 74 149 84 204 29z m145 -161 c44 -99 44 -101 44
-216 0 -114 0 -116 -39 -194 -43 -87 -110 -161 -175 -194 -22 -12 -41 -19 -41
-16 0 3 18 41 40 85 83 165 121 328 121 519 0 68 1 122 3 120 2 -2 23 -49 47
-104z m79 -35 c32 0 121 -59 149 -99 12 -17 34 -56 49 -88 25 -53 27 -68 26
-173 -1 -134 -20 -193 -82 -253 -44 -43 -87 -62 -184 -82 l-71 -15 -39 39
c-22 23 -55 45 -78 52 l-41 12 43 27 c172 108 259 345 199 540 -11 35 -15 58
-8 51 6 -6 23 -11 37 -11z m601 -638 c46 -48 113 -114 149 -145 l65 -58 -65
30 c-73 35 -177 60 -283 70 l-72 6 -3 32 c-2 22 3 38 17 52 12 12 21 29 21 39
0 15 60 61 81 62 4 0 44 -40 90 -88z m-313 58 c19 -12 32 -28 32 -40 0 -11 9
-25 20 -32 14 -9 20 -24 20 -50 l0 -38 -132 6 c-126 6 -158 11 -131 21 33 12
98 69 121 108 15 25 29 44 32 45 3 0 20 -9 38 -20z m-670 -97 c-58 -84 -192
-210 -289 -273 -93 -60 -120 -69 -82 -27 12 12 45 60 73 107 87 142 153 198
265 226 28 7 54 13 58 13 5 1 -7 -20 -25 -46z m597 -112 l60 -6 -40 -9 c-46
-9 -102 -36 -165 -80 -25 -17 -47 -32 -49 -34 -3 -1 0 -7 6 -13 8 -8 21 -2 45
23 57 56 133 80 274 86 115 4 123 3 152 -18 64 -47 63 -122 -1 -176 -86 -72
-235 -77 -432 -14 -49 16 -130 39 -180 51 -49 12 -92 23 -94 25 -2 2 17 23 42
47 26 26 48 57 52 76 4 19 16 36 28 41 25 10 215 11 302 1z m428 -27 c125 -32
213 -92 292 -199 93 -126 163 -218 197 -259 l33 -40 -52 28 c-61 34 -183 154
-249 246 -94 131 -152 179 -269 221 -63 22 -33 24 48 3z m-13 -51 c72 -32 124
-68 154 -108 l25 -32 -37 19 c-44 23 -98 19 -139 -10 -15 -11 -37 -21 -47 -23
-31 -6 -44 -36 -23 -56 21 -22 50 -8 55 26 5 29 61 56 97 47 15 -4 40 -20 56
-36 66 -65 21 -161 -91 -194 -105 -31 -234 -18 -357 38 -55 26 -253 135 -253
141 0 1 35 -6 78 -16 84 -21 218 -25 271 -10 61 18 111 59 133 108 23 51 18
85 -15 121 l-22 24 30 -7 c17 -4 55 -18 85 -32z m376 -114 c166 -123 389 -253
589 -342 33 -15 49 -24 35 -20 -14 4 -102 6 -195 4 -94 -1 -181 2 -194 7 -33
12 -148 146 -233 272 -39 58 -83 118 -97 134 -33 37 -17 28 95 -55z m-1091
-38 c34 -12 106 -47 160 -77 210 -118 243 -134 335 -165 78 -26 111 -32 185
-33 104 0 163 22 215 80 34 39 44 70 38 119 -2 19 -3 35 -3 35 1 0 33 -36 71
-81 79 -93 162 -159 231 -185 27 -10 70 -36 96 -57 53 -44 191 -117 220 -117
38 0 5 -17 -43 -23 -29 -4 -106 -26 -173 -49 l-122 -43 -165 0 c-188 0 -194 2
-435 95 -156 60 -590 202 -755 247 -78 21 -119 26 -226 27 -105 1 -128 3 -115
13 9 7 21 13 27 13 16 0 26 28 13 36 -5 3 -21 -6 -34 -20 -29 -31 -58 -33 -85
-6 -25 25 -25 47 -2 82 35 54 93 86 212 119 90 25 270 19 355 -10z m-143 -291
c62 -16 167 -47 233 -68 l120 -39 -100 -1 c-113 -2 -216 -18 -396 -62 -157
-39 -223 -46 -287 -31 -61 15 -92 46 -99 98 -12 88 86 131 299 132 98 1 134
-4 230 -29z m1949 -92 c41 -20 85 -48 97 -61 l23 -25 -103 -6 c-108 -7 -214 3
-284 28 -55 19 -134 60 -164 84 l-25 21 191 -2 190 -2 75 -37z m199 -39 l145
-48 -95 5 c-73 5 -101 10 -120 25 -14 11 -45 34 -70 51 -25 17 -36 27 -25 23
11 -4 85 -29 165 -56z"/>
<path d="M4326 12720 c-19 -17 -40 -47 -47 -67 -17 -52 -5 -135 26 -189 51
-87 149 -126 410 -164 226 -33 339 -58 535 -122 483 -157 751 -299 1119 -591
246 -196 445 -433 668 -792 64 -105 58 -102 -26 13 -52 70 -81 98 -81 77 0
-14 40 -81 130 -220 207 -317 281 -494 364 -870 63 -283 102 -624 147 -1275
16 -231 16 -4019 0 -4250 -49 -706 -81 -979 -152 -1300 -77 -347 -157 -535
-359 -845 -90 -139 -130 -206 -130 -220 0 -21 29 7 81 77 117 159 106 134 -36
-82 -203 -308 -349 -483 -530 -634 -350 -293 -622 -452 -1030 -600 -271 -98
-397 -130 -685 -175 -294 -45 -373 -76 -425 -164 -48 -83 -46 -183 6 -242 56
-63 151 -66 202 -6 49 59 40 187 -11 155 -23 -15 -27 -48 -7 -64 21 -17 19
-43 -5 -65 -28 -26 -117 -16 -142 15 -61 76 -14 186 101 237 36 16 87 27 160
34 139 13 283 35 390 59 47 11 97 22 111 25 14 3 -2 -8 -35 -23 -33 -16 -81
-45 -108 -66 -26 -20 -53 -36 -61 -36 -16 0 -29 -27 -20 -41 10 -16 43 -9 49
10 19 61 282 171 405 170 l45 0 -47 -43 c-33 -30 -44 -46 -36 -54 7 -7 26 5
62 42 l51 53 140 -6 c129 -6 138 -7 108 -19 -17 -8 -39 -22 -48 -32 -14 -16
-9 -15 42 6 42 17 77 24 129 24 79 0 126 -12 298 -78 120 -46 122 -46 246 -46
150 0 179 7 417 110 94 41 191 81 215 90 l43 15 -33 -30 c-59 -55 -64 -111
-14 -163 29 -32 76 -37 108 -13 10 8 31 15 46 15 34 0 56 34 37 56 -16 19 -48
18 -56 -3 -28 -79 -113 -63 -113 22 0 72 95 125 236 133 109 6 209 -8 401 -54
185 -44 239 -50 314 -34 115 25 181 104 149 180 -16 38 -41 55 -123 86 -34 13
-54 23 -45 23 9 1 26 13 38 28 41 52 3 137 -84 188 -46 27 -218 75 -267 75
-18 0 -32 7 -39 20 -6 11 -21 20 -33 20 -24 0 -66 38 -86 77 -17 34 -13 92 9
128 24 39 53 59 103 73 l36 10 56 -73 c102 -134 243 -252 374 -314 32 -15 82
-48 111 -73 29 -26 75 -58 101 -73 59 -32 181 -67 192 -56 13 13 -10 23 -53
25 -47 3 -153 54 -205 100 l-40 35 35 -9 c79 -19 90 -20 90 -10 0 5 -10 10
-23 10 -46 0 -123 33 -160 69 -21 20 -63 77 -94 126 -30 50 -62 98 -71 108
-11 13 -13 20 -4 29 8 8 22 1 54 -25 103 -83 205 -119 291 -103 70 13 112 91
70 128 -10 8 -37 18 -60 22 -36 5 -43 3 -43 -10 0 -12 6 -15 25 -10 61 15 88
-44 39 -83 -94 -74 -328 49 -404 211 -44 94 -50 146 -44 366 7 222 -3 295 -56
388 l-29 51 43 -4 c67 -8 119 27 165 110 50 91 34 187 -44 254 -40 35 -44 45
-63 128 -35 151 -43 253 -78 995 -32 672 -40 1222 -25 1785 17 662 18 1308 2
1810 -17 567 -11 1091 23 1795 35 742 43 844 78 995 19 83 23 93 63 128 78 67
94 163 44 254 -46 83 -106 121 -175 110 l-33 -6 29 52 c53 94 63 166 56 389
-6 220 0 272 44 366 76 162 310 285 404 211 49 -38 26 -97 -34 -84 -24 5 -30
3 -30 -9 0 -13 8 -15 43 -10 23 4 50 14 60 22 42 37 0 115 -70 128 -83 16
-177 -17 -282 -97 -37 -28 -57 -37 -64 -30 -7 7 -6 16 5 28 9 10 41 59 72 109
30 50 73 107 95 127 37 33 119 67 163 67 10 0 18 5 18 10 0 10 -11 9 -90 -10
l-35 -9 40 35 c53 47 159 98 206 99 39 1 69 18 51 29 -15 9 -164 -41 -214 -73
-25 -16 -65 -46 -87 -66 -23 -21 -68 -50 -101 -66 -133 -63 -276 -183 -376
-315 -50 -67 -58 -73 -82 -68 -99 24 -161 129 -121 207 20 39 62 77 86 77 12
0 27 9 33 20 7 14 21 20 43 20 48 0 183 37 244 66 94 45 145 134 109 190 -10
14 -26 28 -37 33 -16 5 -9 11 38 25 108 34 146 82 124 156 -15 51 -60 85 -141
106 -78 20 -122 16 -320 -30 -206 -48 -284 -59 -396 -54 -110 5 -175 27 -219
74 -30 33 -33 82 -6 115 16 20 23 22 47 14 16 -6 35 -23 42 -38 14 -29 43 -35
61 -13 19 22 -3 56 -37 56 -15 1 -38 7 -52 15 -14 8 -35 14 -47 15 -30 0 -80
-45 -88 -80 -8 -36 18 -95 52 -117 13 -9 22 -17 20 -19 -4 -5 -149 54 -308
124 -139 62 -206 80 -319 88 -105 8 -171 -5 -315 -61 -198 -76 -286 -86 -393
-43 -67 28 -69 12 -3 -21 l35 -19 -139 -5 -140 -5 -51 53 c-36 38 -55 50 -62
43 -8 -8 3 -24 36 -54 l47 -43 -45 0 c-123 -1 -386 109 -405 170 -6 19 -39 26
-49 10 -9 -14 4 -41 20 -41 8 0 35 -16 61 -37 27 -20 75 -49 108 -64 72 -34
70 -34 -31 -10 -112 28 -242 49 -404 66 -191 20 -271 57 -306 141 -38 91 8
164 105 164 58 0 93 -50 56 -80 -20 -16 -16 -49 7 -64 32 -20 49 11 41 74 -5
44 -13 62 -39 88 -28 28 -38 32 -88 32 -47 0 -60 -4 -90 -30z m2218 -345 c32
-9 127 -44 210 -77 159 -64 622 -221 766 -259 66 -18 113 -23 212 -23 71 -1
128 -2 128 -3 0 -1 -16 -11 -35 -23 -34 -21 -39 -40 -9 -40 8 0 14 7 14 15 0
9 11 20 25 27 19 9 29 8 49 -5 38 -25 42 -53 13 -95 -52 -80 -226 -137 -390
-128 -128 7 -200 32 -362 127 -160 94 -231 128 -330 158 -94 29 -215 31 -276
4 -90 -40 -143 -126 -120 -195 l11 -33 -32 40 c-79 99 -197 205 -264 237 -37
17 -99 55 -138 85 -39 29 -104 66 -144 82 l-74 28 56 7 c31 3 109 24 174 45
64 22 126 42 137 45 43 11 320 -3 379 -19z m1428 -116 c45 -23 69 -82 50 -124
-27 -58 -141 -91 -307 -88 -111 2 -174 16 -403 90 l-147 48 115 6 c135 7 162
11 335 51 220 51 283 54 357 17z m-2612 11 c51 0 63 -4 97 -32 21 -18 50 -41
64 -50 13 -9 -39 5 -116 31 -168 58 -180 63 -136 56 18 -3 60 -5 91 -5z m412
-1 c59 -12 207 -81 231 -107 15 -16 5 -17 -156 -17 -151 1 -179 3 -230 22 -60
23 -147 79 -155 101 -5 16 233 17 310 1z m73 -144 c99 0 190 -4 202 -8 29 -11
154 -160 246 -294 39 -58 78 -114 86 -124 7 -11 -36 18 -98 64 -180 134 -414
271 -606 355 -27 12 -41 19 -30 15 11 -4 101 -8 200 -8z m431 -137 c36 -34
103 -112 149 -173 113 -152 154 -184 279 -220 31 -9 56 -18 54 -20 -10 -10
-151 29 -215 59 -91 44 -155 103 -234 219 -55 79 -115 159 -168 221 -36 42 69
-25 135 -86z m562 28 c29 -8 83 -28 120 -46 69 -32 243 -132 239 -137 -2 -1
-30 5 -62 14 -37 10 -101 17 -165 17 -120 1 -162 -14 -218 -79 -41 -46 -45
-115 -9 -153 l22 -24 -30 8 c-64 15 -156 64 -205 110 -27 25 -50 51 -50 57 0
6 9 2 20 -8 10 -9 38 -19 62 -22 35 -4 50 0 81 21 21 14 46 26 57 26 25 0 37
38 17 57 -19 19 -57 1 -57 -26 0 -44 -82 -62 -133 -28 -36 23 -54 85 -37 127
14 33 79 78 133 90 53 13 159 11 215 -4z m254 -180 c40 -8 105 -25 143 -39 39
-14 106 -33 150 -43 44 -10 84 -21 89 -25 5 -5 -9 -26 -32 -48 -23 -22 -45
-55 -50 -73 -13 -50 -51 -59 -227 -51 -80 3 -145 9 -145 13 0 3 23 12 50 19
39 10 121 55 179 97 2 2 0 11 -3 21 -6 15 -10 13 -31 -13 -72 -92 -359 -136
-438 -68 -77 66 -30 178 91 214 43 13 144 11 224 -4z m910 -113 c-16 -21 -48
-69 -70 -108 -66 -115 -156 -184 -262 -201 l-44 -7 18 29 c37 57 112 138 182
198 69 59 193 140 202 131 2 -2 -9 -21 -26 -42z m-1405 -156 c63 -23 170 -44
253 -50 32 -2 35 -5 38 -38 2 -25 -3 -40 -18 -54 -11 -10 -20 -25 -20 -34 0
-14 -59 -61 -75 -61 -4 0 -57 51 -118 114 -62 62 -132 130 -157 151 -44 36
-44 37 -8 17 20 -11 68 -32 105 -45z m562 -63 l32 -7 -51 -34 c-40 -27 -74
-66 -106 -121 -1 -2 -18 5 -38 14 -26 13 -36 24 -36 41 0 12 -9 28 -20 35 -13
9 -20 24 -20 45 l0 33 104 0 c57 0 118 -3 135 -6z m260 -52 c18 -26 60 -53
105 -67 16 -5 12 -10 -25 -34 -172 -109 -258 -349 -192 -535 7 -22 12 -40 10
-42 -9 -9 -86 19 -121 44 -102 73 -153 202 -142 357 13 173 76 251 234 289 88
22 108 20 131 -12z m422 -61 c-40 -77 -45 -119 -45 -371 l-1 -245 -28 -60
c-30 -64 -84 -127 -129 -151 -86 -45 -190 22 -173 112 8 45 39 65 87 58 30 -5
39 -3 44 11 4 10 0 23 -10 33 -13 14 -19 14 -34 4 -9 -7 -31 -19 -49 -27 -18
-8 -44 -27 -58 -42 l-25 -28 0 50 c0 174 47 371 125 531 52 108 55 112 92 118
60 11 136 37 163 57 23 16 27 16 42 2 16 -14 16 -17 -1 -52z m-316 -111 c-81
-161 -120 -327 -120 -517 0 -72 -1 -131 -1 -130 -14 16 -86 208 -95 255 -24
128 26 286 124 385 46 46 115 92 125 82 2 -1 -13 -35 -33 -75z m-537 47 c32
-18 33 -20 26 -60 -19 -102 1 -239 48 -330 27 -53 93 -123 145 -154 24 -14 48
-34 54 -44 14 -28 57 -25 61 4 2 15 16 -9 46 -78 24 -55 47 -109 52 -120 5
-11 18 -52 29 -91 12 -39 32 -93 46 -120 l25 -49 -53 56 c-77 80 -182 223
-283 384 -120 192 -249 385 -329 490 -36 48 -64 88 -63 89 72 47 137 54 196
23z m549 -817 c30 -9 53 -10 81 -3 l40 10 -13 -31 c-23 -56 -27 -132 -10 -150
24 -24 62 -20 81 9 19 30 12 58 -21 75 -33 18 -32 54 1 85 26 24 52 31 103 26
62 -6 111 -81 111 -169 0 -43 -5 -57 -30 -86 -62 -70 -199 -86 -281 -32 -59
40 -116 155 -153 310 l-7 29 28 -30 c16 -17 48 -37 70 -43z m-244 -96 c70 -93
200 -210 268 -242 l59 -27 -6 -55 c-5 -40 -13 -59 -30 -73 -13 -10 -24 -27
-24 -37 0 -20 -78 -57 -90 -43 -3 4 -24 62 -45 128 -22 66 -74 189 -116 274
-43 84 -74 150 -70 145 4 -5 28 -36 54 -70z m530 -281 c-20 -49 -38 -113 -53
-186 l-12 -57 -39 31 c-29 23 -39 38 -39 59 0 17 -8 34 -19 42 -15 11 -18 22
-13 66 l5 52 46 1 c25 0 64 6 86 14 22 7 43 13 47 14 4 1 0 -16 -9 -36z m-192
-217 c22 -1 51 -12 77 -30 47 -32 47 -35 32 -154 -16 -122 -39 -464 -60 -899
-11 -227 -21 -423 -21 -435 -1 -13 -7 59 -15 158 -49 672 -95 1056 -159 1307
-7 25 -3 29 36 47 24 11 51 17 59 13 8 -4 31 -7 51 -7z m54 -6041 c17 -364 40
-699 55 -817 15 -120 15 -121 -35 -157 -32 -23 -51 -30 -66 -26 -11 4 -33 2
-49 -5 -23 -10 -34 -8 -70 10 -35 18 -41 25 -36 43 59 213 119 704 158 1302
l13 190 7 -100 c4 -55 14 -253 23 -440z m100 -1094 c9 -41 25 -94 36 -118 10
-23 17 -43 16 -43 -1 0 -24 7 -51 15 -27 8 -68 15 -91 15 l-42 0 -5 52 c-5 44
-2 55 13 66 11 8 19 25 19 42 0 20 10 36 38 58 43 35 37 43 67 -87z m-252 57
c16 -6 27 -17 27 -28 0 -10 11 -27 24 -37 17 -14 25 -33 30 -74 l7 -54 -58
-27 c-68 -31 -201 -150 -270 -242 -25 -33 -50 -65 -54 -70 -4 -5 27 61 70 145
42 85 94 206 115 269 20 63 39 121 42 129 2 8 11 10 22 6 9 -4 29 -12 45 -17z
m283 -282 c28 -13 60 -36 72 -51 44 -56 18 -189 -46 -231 -56 -37 -155 -11
-168 43 -5 20 0 32 25 55 35 33 38 44 15 76 -19 27 -55 29 -78 3 -14 -16 -15
-27 -7 -79 5 -34 14 -70 20 -80 10 -19 8 -19 -30 -9 -53 13 -113 -5 -151 -45
-15 -17 -28 -28 -28 -25 0 21 55 188 75 227 65 129 179 173 301 116z m-321
-103 c-14 -25 -34 -78 -46 -117 -11 -39 -24 -80 -29 -91 -5 -11 -28 -65 -52
-120 -30 -69 -44 -93 -46 -77 -4 28 -47 31 -61 3 -6 -10 -30 -30 -54 -44 -52
-31 -118 -101 -145 -154 -47 -91 -67 -228 -48 -329 7 -39 6 -42 -26 -61 -42
-24 -122 -23 -164 3 -16 10 -30 19 -32 20 -1 1 31 46 71 100 86 115 199 283
320 476 90 144 202 297 282 386 26 28 49 52 51 52 2 0 -8 -21 -21 -47z m144
-227 c41 -22 100 -92 130 -155 26 -56 26 -58 27 -301 0 -252 6 -295 44 -371
17 -32 17 -37 3 -51 -13 -14 -19 -13 -56 8 -23 13 -75 31 -115 41 l-74 17 -54
111 c-77 159 -124 356 -124 530 l0 50 25 -28 c14 -15 40 -34 58 -42 18 -8 40
-20 49 -27 15 -10 21 -10 34 4 10 10 14 23 10 33 -5 14 -14 16 -44 11 -49 -7
-79 13 -88 58 -16 89 89 156 175 112z m-234 -199 c0 -190 39 -355 120 -517 20
-40 34 -74 31 -77 -10 -10 -106 59 -142 101 -84 97 -127 252 -104 368 8 45 87
258 95 258 0 0 0 -60 0 -133z m-94 -40 c-70 -185 10 -435 173 -537 30 -19 55
-38 56 -41 0 -4 -15 -10 -34 -13 -21 -4 -50 -22 -75 -48 l-42 -41 -68 12
c-180 32 -253 113 -267 296 -12 157 40 285 143 356 38 27 108 52 121 44 1 -1
-2 -14 -7 -28z m-500 -549 c23 -12 39 -29 39 -39 0 -10 9 -27 21 -38 15 -13
20 -28 17 -52 -3 -31 -6 -34 -38 -36 -131 -10 -273 -47 -358 -95 l-37 -21 40
33 c22 18 92 86 155 151 63 65 117 118 119 118 2 1 21 -9 42 -21z m254 -36
c17 -26 52 -61 79 -79 l48 -31 -43 -6 c-24 -3 -86 -7 -137 -8 l-92 -3 0 35 c0
24 6 39 20 48 11 7 20 21 20 32 0 17 52 61 70 59 3 0 19 -21 35 -47z m692 -52
c58 -25 141 -112 186 -192 21 -37 49 -81 63 -98 15 -17 24 -33 22 -35 -6 -7
-113 59 -177 108 -59 45 -171 165 -204 218 l-21 32 44 -7 c24 -4 63 -15 87
-26z m-408 -123 c27 -9 37 -20 43 -45 5 -18 27 -51 50 -73 23 -22 37 -43 32
-48 -5 -4 -45 -15 -89 -26 -44 -10 -127 -34 -185 -53 -96 -33 -115 -36 -220
-36 -108 -1 -118 1 -162 27 -84 49 -104 125 -48 182 27 28 40 33 100 39 131
12 306 -38 346 -99 20 -30 34 -32 34 -5 0 11 -6 20 -14 20 -7 0 -19 7 -26 15
-21 25 -97 65 -152 79 l-53 14 45 6 c42 6 116 10 220 14 25 0 60 -4 79 -11z
m-589 -11 c0 -3 -26 -12 -57 -21 -124 -36 -165 -68 -278 -219 -95 -128 -191
-223 -255 -256 -40 -20 -43 -20 -29 -4 77 93 115 142 171 224 36 53 87 115
113 138 56 52 168 107 256 126 75 17 79 17 79 12z m-18 -59 c-35 -37 -31 -107
10 -152 56 -65 98 -80 218 -79 65 0 128 6 165 17 32 9 61 15 62 13 2 -2 -36
-26 -84 -54 -214 -122 -290 -147 -418 -139 -139 8 -226 70 -211 151 9 47 32
74 75 87 47 14 92 -4 101 -40 8 -36 36 -50 57 -28 20 20 9 48 -23 57 -10 3
-31 13 -45 23 -44 29 -93 33 -134 9 -49 -30 -44 -13 13 41 53 49 89 70 166 98
68 24 73 23 48 -4z m-374 -84 c-14 -16 -54 -71 -88 -123 -72 -108 -192 -255
-224 -273 -14 -8 -80 -12 -206 -12 -102 -1 -194 -4 -205 -8 -11 -4 3 3 30 15
190 83 431 224 598 350 107 80 138 97 95 51z m1338 -63 c46 -11 102 -29 123
-39 45 -24 97 -73 106 -102 7 -22 -17 -66 -41 -76 -21 -8 -64 13 -64 32 0 17
-25 21 -35 5 -3 -5 10 -19 29 -31 20 -12 36 -22 36 -22 0 -1 -55 -2 -122 -3
-80 0 -147 -6 -193 -17 -132 -33 -570 -179 -774 -259 -245 -96 -317 -111 -490
-106 -115 4 -137 8 -251 46 -69 22 -149 44 -179 48 l-54 7 63 24 c73 27 117
52 180 103 25 20 79 52 120 72 59 29 93 55 156 120 44 46 92 99 107 118 l27
35 -11 -33 c-24 -70 28 -154 121 -195 33 -15 65 -20 121 -20 129 2 239 40 426
149 70 41 157 89 193 106 121 57 268 71 406 38z m198 -284 c103 -24 138 -65
117 -136 -25 -83 -144 -105 -326 -61 -194 47 -285 63 -405 68 l-125 6 55 19
c165 57 346 108 411 117 84 11 192 5 273 -13z m-1900 -97 c-22 -25 -151 -88
-214 -104 -36 -10 -104 -15 -200 -14 l-145 0 39 34 c91 80 178 103 383 101
139 -1 150 -2 137 -17z m-495 -39 c-24 -16 -55 -38 -69 -49 -19 -15 -46 -20
-115 -24 l-90 -5 150 53 c83 29 154 53 159 54 6 0 -10 -12 -35 -29z"/>
</g>
</svg>
